<svg id="Layer_1" data-name="Layer 1" xmlns="http://www.w3.org/2000/svg" xmlns:xlink="http://www.w3.org/1999/xlink" viewBox="0 0 1129.21 1066.11"><defs><style>.cls-1{fill:#fff;}.cls-2{fill:#efefef;}.cls-3{fill:url(#linear-gradient);}.cls-4{fill:url(#linear-gradient-2);}</style><linearGradient id="linear-gradient" x1="230.73" y1="315.48" x2="811.7" y2="315.48" gradientUnits="userSpaceOnUse"><stop offset="0.22" stop-color="#ba932e"/><stop offset="0.44" stop-color="#ffd365"/><stop offset="0.68" stop-color="#ffd341"/><stop offset="1" stop-color="#fed402"/></linearGradient><linearGradient id="linear-gradient-2" x1="326.86" y1="756.37" x2="380.86" y2="756.37" gradientUnits="userSpaceOnUse"><stop offset="0.22" stop-color="#ba932e"/><stop offset="0.44" stop-color="#bb942e"/><stop offset="0.68" stop-color="#bb942e"/></linearGradient></defs><title>Untitled-1wdwr</title><rect class="cls-1" x="97.35" y="433.87" width="1031.86" height="632.24"/><path class="cls-2" d="M-92,302.37c1,.66,1,1.33,0,2Z" transform="translate(92.07 434.51)"/><path class="cls-2" d="M-91-434.46l-1,1C-92.21-434.32-91.88-434.65-91-434.46Z" transform="translate(92.07 434.51)"/><path class="cls-2" d="M-92,412.19l1,1C-91.88,413.39-92.21,413.05-92,412.19Z" transform="translate(92.07 434.51)"/><path class="cls-3" d="M488.42,236c1.93,3.86,3.75,7.23,5.36,10.72a161.34,161.34,0,0,1,14.3,82.63c-2.8,32.55-13.89,61.61-34.4,86.47-23.24,28.19-52.77,45.34-87.72,52a191,191,0,0,1-33.84,3.11c-39.21.37-78.44.14-117.66.14h-3.73V397H344.9a82.52,82.52,0,0,0,29.59-5.25c16.42-6.22,28.9-17.31,36.46-33.71,11.51-24.94,12.44-50.81,3.3-76.6-8.41-23.75-25.68-37.66-49.21-42.92a108,108,0,0,0-22.6-2.45c-35.66-.25-71.33-.11-107-.11h-4.7v-76h3q174.87,0,349.74,0c2.4,0,3.6.79,4.77,3q27.54,51.56,55.28,103c.32.6.74,1.13,1.26,1.93,5.32-7,10.5-13.87,15.65-20.73q31.86-42.37,63.7-84.77c1.08-1.45,2.09-2.39,4.08-2.38q40.46.12,80.92.07c.77,0,1.54.09,2.52.16V470.85H737V263.48l-.65-.34-97,128.44c-3.66-5.41-7.14-10.51-10.59-15.64q-44.79-66.66-89.48-133.42c-3.27-4.91-6.54-7-12.37-6.73-11.64.55-23.31.16-35,.16Z" transform="translate(92.07 434.51)"/><rect class="cls-4" x="326.86" y="704.3" width="54" height="104.14"/></svg>